<?xml version="1.0"?>
<svg xmlns="http://www.w3.org/2000/svg" xmlns:xlink="http://www.w3.org/1999/xlink" version="1.1" width="512px" height="512px" viewBox="0 0 16 16"><g><path fill="#9aa3af" d="M2 5v1h1v9c0 0 1.1 1 4.5 1s4.5-1 4.5-1v-9h1v-1h-11zM6 14h-1v-7h1v7zM8 14h-1v-7h1v7zM10 14h-1v-7h1v7z" data-original="#000000" class="active-path" data-old_color="#9aa3af"/><path fill="#9aa3af" d="M12 3c0 0 0-0.5-2-0.8v-0.7c0-0.8-0.7-1.5-1.5-1.5h-2c-0.8 0-1.5 0.7-1.5 1.5v0.7c-1.6 0.3-2 0.8-2 0.8h-1v1h11v-1h-1zM6 1.5c0-0.3 0.2-0.5 0.5-0.5h2c0.2 0 0.5 0.2 0.5 0.5v0.6c0-0.1-0.9-0.1-1.5-0.1s-1.1 0-1.5 0.1v-0.6z" data-original="#000000" class="active-path" data-old_color="#9aa3af"/></g> </svg>
